<svg width="500" height="500" viewBox="0 0 500 500" fill="none" xmlns="http://www.w3.org/2000/svg">
<rect width="500" height="500" fill="black"/>
<path d="M32.3892 198.182H58.9375L75.6918 266.591H76.8849L116.21 198.182H142.759L125.855 300H104.974L116.011 233.729H115.116L77.929 299.503H63.6605L48.348 233.48H47.5028L36.3665 300H15.4858L32.3892 198.182ZM143.591 300L160.495 198.182H229.103L226.12 215.93H179.039L175.061 240.192H218.613L215.63 257.94H172.078L168.101 282.251H215.381L212.398 300H143.591ZM265.905 300H229.314L246.217 198.182H282.112C292.354 198.182 300.855 200.27 307.616 204.446C314.411 208.622 319.2 214.605 321.984 222.393C324.768 230.149 325.266 239.413 323.476 250.185C321.752 260.592 318.322 269.524 313.185 276.982C308.047 284.406 301.468 290.107 293.447 294.084C285.427 298.028 276.246 300 265.905 300ZM253.923 281.555H267.148C273.545 281.555 279.146 280.362 283.952 277.976C288.791 275.589 292.751 271.911 295.834 266.939C298.949 261.967 301.153 255.604 302.446 247.848C303.672 240.49 303.589 234.524 302.197 229.95C300.839 225.343 298.204 221.979 294.293 219.858C290.382 217.704 285.244 216.626 278.881 216.626H264.712L253.923 281.555ZM365.374 301.491C357.552 301.491 351.072 299.901 345.935 296.719C340.798 293.504 337.185 288.963 335.097 283.097C333.042 277.197 332.694 270.22 334.053 262.166C335.379 254.311 338.047 247.417 342.057 241.484C346.101 235.552 351.172 230.928 357.27 227.614C363.369 224.299 370.163 222.642 377.654 222.642C382.692 222.642 387.249 223.454 391.326 225.078C395.435 226.669 398.849 229.089 401.567 232.337C404.285 235.552 406.141 239.579 407.135 244.418C408.163 249.257 408.146 254.924 407.086 261.42L406.141 267.237H341.709L343.748 254.112H388.293C388.79 251.063 388.591 248.362 387.696 246.009C386.801 243.655 385.31 241.816 383.222 240.49C381.134 239.131 378.565 238.452 375.516 238.452C372.4 238.452 369.484 239.214 366.766 240.739C364.048 242.263 361.761 244.268 359.905 246.754C358.082 249.207 356.906 251.875 356.375 254.759L354.039 267.784C353.376 271.795 353.508 275.125 354.436 277.777C355.398 280.429 357.055 282.417 359.408 283.743C361.761 285.036 364.744 285.682 368.357 285.682C370.71 285.682 372.914 285.35 374.969 284.688C377.057 284.025 378.913 283.047 380.537 281.754C382.161 280.429 383.487 278.788 384.515 276.832L403.854 278.125C402.064 282.831 399.346 286.941 395.701 290.455C392.055 293.935 387.663 296.652 382.526 298.608C377.422 300.53 371.704 301.491 365.374 301.491ZM496.45 223.636L457.025 300H433.162L419.191 223.636H440.768L447.529 278.274H448.325L473.233 223.636H496.45Z" fill="white"/>
</svg>
